<svg xmlns="http://www.w3.org/2000/svg" viewBox="0 0 24 24"><path d="M10.8 18h2.4v-7.2h-2.4V18ZM12 8.4q.51 0 .856-.346.344-.344.344-.854t-.344-.856Q12.51 6 12 6t-.854.344q-.346.346-.346.856t.346.854q.344.346.854.346ZM12 24q-2.49 0-4.68-.946-2.19-.944-3.81-2.564T.946 16.68Q0 14.49 0 12q0-2.49.946-4.68.944-2.19 2.564-3.81T7.32.944Q9.51 0 12 0q2.49 0 4.68.944 2.19.946 3.81 2.566 1.62 1.62 2.564 3.81Q24 9.51 24 12q0 2.49-.946 4.68-.944 2.19-2.564 3.81t-3.81 2.564Q14.49 24 12 24Zm0-2.4q4.02 0 6.81-2.79T21.6 12q0-4.02-2.79-6.81T12 2.4q-4.02 0-6.81 2.79T2.4 12q0 4.02 2.79 6.81T12 21.6Z"/></svg>