<svg xmlns="http://www.w3.org/2000/svg" viewBox="0 0 24 24"><path d="M10.909 3.273V0h2.182v3.273h-2.182Zm0 20.727v-3.273h2.182V24h-2.182Zm9.818-10.909v-2.182H24v2.182h-3.273ZM0 13.091v-2.182h3.273v2.182H0Zm19.309-6.873-1.527-1.527 1.909-1.964 1.582 1.582-1.964 1.909Zm-15 15.055-1.582-1.582 1.964-1.909 1.527 1.527-1.909 1.964Zm15.382 0-1.909-1.964 1.527-1.527 1.964 1.909-1.582 1.582Zm-15-15.055L2.727 4.309l1.582-1.582 1.909 1.964-1.527 1.527ZM12 18.545q-2.727 0-4.636-1.909Q5.455 14.727 5.455 12q0-2.727 1.909-4.636Q9.273 5.455 12 5.455q2.727 0 4.636 1.909Q18.545 9.273 18.545 12q0 2.727-1.909 4.636-1.909 1.909-4.636 1.909Zm0-2.181q1.827 0 3.096-1.269 1.268-1.268 1.268-3.095 0-1.827-1.268-3.096Q13.827 7.636 12 7.636q-1.827 0-3.095 1.268Q7.636 10.173 7.636 12q0 1.827 1.269 3.095 1.268 1.269 3.095 1.269Z"/></svg>